<?xml version="1.0" encoding="utf-8"?>
<!-- Generator: Adobe Illustrator 15.1.0, SVG Export Plug-In . SVG Version: 6.00 Build 0)  -->
<!DOCTYPE svg PUBLIC "-//W3C//DTD SVG 1.1//EN" "http://www.w3.org/Graphics/SVG/1.1/DTD/svg11.dtd">
<svg version="1.1" id="Layer_1" xmlns="http://www.w3.org/2000/svg" xmlns:xlink="http://www.w3.org/1999/xlink" x="0px" y="0px"
	 width="512px" height="512px" viewBox="0 0 512 512" enable-background="new 0 0 512 512" xml:space="preserve">
<path id="share-icon" fill="#FFFFFF" d="M356.814,171.815c-15.021,0-29.121,3.938-41.329,10.834
	c-8.066,4.557-17.999,4.275-25.8-0.721l-87.311-55.909c-6.749-4.322-11.013-11.62-11.479-19.621C189.084,75.265,163.213,50,131,50
	c-33.137,0-60,26.863-60,60c0,42.486,42.832,71.156,81.814,55.898c7.459-2.919,15.866-2.083,22.612,2.236l75.168,48.134
	c13.645,8.737,21.975,23.859,22.036,40.06c0,0.004,0,0.008,0,0.012c0.062,15.71-7.933,30.359-21.163,38.831l-76.042,48.692
	c-6.735,4.313-15.163,5.152-22.611,2.236C113.785,330.828,71,359.574,71,402c0,33.137,26.863,60,60,60
	c32.186,0,58.085-25.241,59.897-56.397c0.464-7.987,4.74-15.307,11.479-19.622l87.31-55.908c7.793-4.99,17.741-5.272,25.8-0.721
	c12.208,6.896,26.308,10.834,41.329,10.834C403.309,340.186,441,302.493,441,256C441,209.506,403.309,171.815,356.814,171.815z"/>
</svg>
