<?xml version="1.0" encoding="utf-8"?>
<!-- Generator: Adobe Illustrator 15.1.0, SVG Export Plug-In . SVG Version: 6.00 Build 0)  -->
<!DOCTYPE svg PUBLIC "-//W3C//DTD SVG 1.1//EN" "http://www.w3.org/Graphics/SVG/1.1/DTD/svg11.dtd">
<svg version="1.1" id="Layer_1" xmlns="http://www.w3.org/2000/svg" xmlns:xlink="http://www.w3.org/1999/xlink" x="0px" y="0px"
	 width="512px" height="512px" viewBox="0 0 512 512" enable-background="new 0 0 512 512" xml:space="preserve">
<path id="eye-2-icon" fill="#FFFFFF" d="M303,256c0,24.854-20.146,45-45,45c-24.853,0-45-20.146-45-45c0-24.853,20.147-45,45-45
	C282.854,211,303,231.147,303,256z M462,248.666c0,0-73,121.668-205.75,121.668C133,370.334,50,248.666,50,248.666
	s76.333-107,206.25-107C388.334,141.666,462,248.666,462,248.666z M338,256c0-44.183-35.816-80-80-80c-44.183,0-80,35.817-80,80
	c0,44.184,35.817,80,80,80C302.184,336,338,300.184,338,256z"/>
</svg>
